# xmcd CD database file
#
# Track frame offsets:
#	150
#	64848
#	117645
#	175240
#
# Disc length: 3163 seconds
#
# Revision: 2
# Processed by: cddbd v1.5.1PL2 Copyright (c) Steve Scherf et al.
# Submitted via: CDex 1.50
#
DISCID=360c5904
DTITLE=Phil Thornton - Initiation
DYEAR=2003
DGENRE=New Age
TTITLE0=Guiding Light
TTITLE1=Initiation
TTITLE2=Submission
TTITLE3=New Life
EXTD=YEAR: 2003
EXTT0=
EXTT1=
EXTT2=
EXTT3=
PLAYORDER=
